<?xml version="1.0" encoding="UTF-8"?>
<svg width="86px" height="29px" viewBox="0 0 86 29" version="1.1" xmlns="http://www.w3.org/2000/svg" xmlns:xlink="http://www.w3.org/1999/xlink">
    <title>CBB2C1AD-0849-44D1-90E2-16842443B864</title>
    <g id="TaaS-ROI" stroke="none" stroke-width="1" fill="none" fill-rule="evenodd">
        <g id="TaaS-Calc-Landing" transform="translate(-80.000000, -26.000000)" fill="#2A2A2A">
            <path d="M101.968857,36.5126526 C102.749807,36.6536569 103.534884,36.8077171 104.319961,36.9732666 L104.319961,36.9732666 L104.354521,36.9800557 C105.135987,37.1456052 105.917453,37.3215994 106.695309,37.5064717 C106.699951,37.5080384 106.704078,37.5090829 106.70872,37.5101274 L106.70872,37.5101274 C107.097132,37.6025635 107.483997,37.6976108 107.869829,37.7947471 C107.87963,37.7973583 107.888399,37.7999695 107.8982,37.8020585 C108.659033,37.9942421 109.414192,38.1947815 110.160583,38.4015878 C110.183279,38.4083769 110.206491,38.4141215 110.229187,38.4209106 C110.235377,38.4224773 110.241051,38.424044 110.247241,38.4256107 C110.980736,38.6308503 111.706493,38.8418345 112.41884,39.0585633 L112.41884,39.0585633 L112.448242,39.0669191 C112.464232,39.0716192 112.481254,39.0768416 112.49776,39.082064 C112.843359,39.1870339 113.185863,39.2935704 113.524756,39.4011515 C113.538684,39.4058516 113.552611,39.4105518 113.566538,39.4147297 C113.592329,39.4230855 113.618635,39.4314413 113.643911,39.4392748 C114.318602,39.6539147 114.979367,39.8727325 115.623625,40.0946836 C115.64529,40.101995 115.666954,40.1098285 115.688103,40.1171399 L115.688103,40.1171399 L115.782497,40.1495186 C116.093021,40.2570997 116.400965,40.365203 116.703751,40.4738285 L116.703751,40.4738285 L116.80743,40.5114296 C117.088036,40.6127438 117.363999,40.7145802 117.637384,40.8164167 C117.675038,40.8299949 117.713209,40.8446175 117.750864,40.858718 C117.75757,40.8613291 117.764791,40.8639403 117.770981,40.8665515 C118.056229,40.9730881 118.336319,41.0806691 118.611766,41.1882502 L118.611766,41.1882502 L118.673149,41.2122731 C118.709256,41.2258513 118.744848,41.240474 118.780439,41.2545744 C119.061045,41.3647667 119.338556,41.4749589 119.608329,41.5851511 C119.612456,41.5872401 119.617098,41.5888068 119.620709,41.5903735 C119.885324,41.6984768 120.162835,41.8102357 120.44963,41.9251281 L120.44963,41.9251281 L120.455304,41.9277393 L120.509981,41.9496733 C120.864349,42.0911998 121.232644,42.2379487 121.615898,42.3893978 L121.603,42.384 L121.234305,42.4480714 C115.246639,43.5439085 105.444075,48.5391657 97.2354375,53.1585606 L96.724522,53.4467447 C96.0580835,53.8232784 93.9323922,55.0923169 91.6204901,54.9946584 L91.6204901,54.9946584 L91.6952839,54.6787044 C93.3314627,47.5449321 97.124282,41.2420407 101.968857,36.5126526 Z M143.273912,36.5126526 C148.117971,41.2420407 151.911306,47.5449321 153.546969,54.6787044 L153.621763,54.9946584 C151.309861,55.0923169 149.184169,53.8232784 148.517731,53.4467447 C146.821923,52.4880201 145.052044,51.5091161 143.257001,50.548691 L142.177347,49.9749627 C135.505685,46.45446 128.62344,43.2927792 124.007948,42.4480714 L123.638,42.384 L124.00489,42.2395348 C124.253821,42.1406964 124.496026,42.0440243 124.732272,41.9496733 L124.786949,41.9277393 L124.786949,41.9277393 L124.792623,41.9251281 C125.079418,41.8102357 125.356929,41.6984768 125.621544,41.5903735 C125.625155,41.5888068 125.629797,41.5872401 125.633924,41.5851511 C125.903697,41.4749589 126.181208,41.3647667 126.461814,41.2545744 L126.569104,41.2122731 L126.569104,41.2122731 C126.589737,41.2039173 126.609854,41.1960838 126.630487,41.1882502 C126.905934,41.0806691 127.186024,40.9730881 127.471272,40.8665515 L127.491389,40.858718 L127.491389,40.858718 C127.529044,40.8446175 127.567214,40.8299949 127.604869,40.8164167 C127.878254,40.7145802 128.154733,40.6127438 128.434823,40.5114296 C128.469382,40.4994182 128.503942,40.4863622 128.539018,40.4738285 C128.841288,40.365203 129.149232,40.2570997 129.459755,40.1495186 C129.49122,40.1385516 129.52217,40.1281069 129.55415,40.1171399 C129.575815,40.1098285 129.596963,40.101995 129.618628,40.0946836 C130.263402,39.8727325 130.923651,39.6539147 131.598342,39.4392748 C131.624133,39.4314413 131.649924,39.4230855 131.675715,39.4147297 C131.689642,39.4105518 131.703569,39.4058516 131.717497,39.4011515 C132.05639,39.2935704 132.398894,39.1870339 132.745009,39.082064 C132.760999,39.0768416 132.778021,39.0716192 132.794011,39.0669191 C132.803812,39.0643079 132.813613,39.0611745 132.823413,39.0585633 C133.53576,38.8418345 134.261517,38.6308503 134.995012,38.4256107 C135.001202,38.424044 135.006876,38.4224773 135.013066,38.4209106 C135.035762,38.4141215 135.058974,38.4083769 135.08167,38.4015878 C135.82806,38.1947815 136.58322,37.9942421 137.344053,37.8020585 L137.372939,37.7947471 L137.372939,37.7947471 L137.952011,37.6506747 L137.952011,37.6506747 L138.533533,37.5101274 C138.538175,37.5090829 138.542302,37.5080384 138.546944,37.5064717 C139.324799,37.3215994 140.106782,37.1456052 140.887732,36.9800557 C140.89289,36.9790112 140.898564,36.9779668 140.903207,36.9774445 C140.909396,36.9758778 140.916102,36.9748333 140.922292,36.9732666 C141.707369,36.8077171 142.492446,36.6536569 143.273912,36.5126526 Z M80.3169293,39.1859894 C82.0877369,34.4456343 90.7560801,34.2988854 100.113042,35.9909368 C95.2694989,40.7198026 91.6221407,47.0232163 89.9864777,54.1564663 C89.9864777,54.1564663 89.9596551,54.2917259 89.9374749,54.5006212 C89.9158105,54.6975049 89.9116839,54.7998636 89.9116839,54.7998636 C88.5932498,54.7445064 87.2149807,53.918848 86.0115743,52.5537176 C81.6240154,47.575222 79.0676149,42.5304021 80.3169293,39.1859894 Z M164.925324,39.1859894 C166.174638,42.5304021 163.618753,47.575222 159.230679,52.5537176 C158.027788,53.918848 156.649003,54.7445064 155.330569,54.7998636 C155.330569,54.7998636 155.326442,54.6975049 155.305294,54.5006212 C155.282598,54.2917259 155.255775,54.1564663 155.255775,54.1564663 C153.620112,47.0232163 149.97327,40.7198026 145.129211,35.9909368 C154.486173,34.2988854 163.154516,34.4456343 164.925324,39.1859894 Z M122.63526,26 C129.430147,26 136.575276,29.3851473 142.270437,34.9459384 C135.976926,36.0838952 129.437885,38.053255 124.630965,40.0184369 C124.022814,40.2670222 123.352249,40.5344081 122.63526,40.8179834 C121.918271,40.5344081 121.248222,40.2670222 120.640071,40.0184369 C115.832635,38.053255 109.29411,36.0838952 103.000599,34.9459384 C108.695759,29.3851473 115.840888,26 122.63526,26 Z" id="Combined-Shape"></path>
        </g>
    </g>
</svg>