<?xml version="1.0" encoding="UTF-8"?>
<svg width="40px" height="40px" viewBox="0 0 40 40" version="1.1" xmlns="http://www.w3.org/2000/svg" xmlns:xlink="http://www.w3.org/1999/xlink">
    <title>08E14145-FC02-4EBD-A680-DC5E6A3F2893</title>
    <g id="TaaS-ROI" stroke="none" stroke-width="1" fill="none" fill-rule="evenodd">
        <g id="Additional-Assets" transform="translate(-40.000000, -670.000000)" fill="#8231A9" fill-rule="nonzero">
            <path d="M52.488157,675.447874 L52.55704,675.503176 L55.86204,678.258176 C56.3923204,678.70021 56.4638582,679.488426 56.0218242,680.018707 C55.5936037,680.532416 54.8404991,680.615606 54.3117443,680.218429 L54.2612933,680.178491 L50.9571216,677.424176 L50.3636538,682.165258 C50.3216967,682.500444 50.1458656,682.804379 49.8762089,683.007837 C47.8290152,684.55246 46.3087677,686.691597 45.5232526,689.132873 C45.3631369,689.630492 44.9113656,689.973818 44.3933817,689.998567 L44.3333333,690 L42.5,690 L42.5,697.5 L45.4,697.5 C45.8212503,697.5 46.2125486,697.712012 46.443041,698.061103 L46.4780792,698.117351 C48.9965168,702.408946 53.6090701,705.029326 58.5772967,705.001838 L58.7294946,705.000168 L58.7829114,705.000433 C61.6655653,705.076357 64.4088417,704.240122 66.6897715,702.718168 C66.7464389,702.668743 66.8092421,702.625791 66.8762824,702.588614 C69.2431521,700.954485 71.0899703,698.571166 72.0457193,695.701662 C72.2638745,695.046681 72.9716909,694.692564 73.6266716,694.910719 C74.2816522,695.128874 74.6357692,695.836691 74.417614,696.491672 L74.3357914,696.729878 C74.326398,696.771057 74.3148357,696.812155 74.3010388,696.853036 C73.3939457,699.540871 71.7414949,701.915481 69.536341,703.700016 C69.3255382,703.878046 69.1165604,704.04572 68.9035873,704.208061 L69.9627016,708.446924 C70.1300857,709.116681 69.7228323,709.795317 69.0530757,709.962702 C68.4030178,710.125163 67.7445946,709.746291 67.5533812,709.111483 L67.5372984,709.053076 L66.6822932,705.630318 C64.3488527,706.868051 61.6962269,707.540453 58.9294514,707.503771 L58.7451429,707.5 L58.5928061,707.501791 C55.8401734,707.51732 53.1800695,706.843633 50.8250652,705.600154 L49.962725,709.052982 C49.7953925,709.722752 49.1167873,710.130057 48.4470178,709.962725 C47.7969474,709.800314 47.3941288,709.156263 47.5239938,708.506125 L47.537275,708.447018 L48.6008054,704.187159 C47.1280012,703.076541 45.8345299,701.712453 44.7906193,700.13435 L44.7025714,700 L41.25,700 C40.5799486,700 40.0330333,699.472792 40.0014415,698.810564 L40,698.75 L40,688.75 C40,688.079949 40.5272079,687.533033 41.1894364,687.501441 L41.25,687.5 L43.452,687.5 C44.3669833,685.161891 45.8556896,683.09137 47.7818815,681.479922 L47.9468571,681.343714 L48.4762118,677.115819 C48.5854355,676.237064 49.1508314,675.483924 49.9588736,675.132123 L50.0378215,675.099339 C50.8604393,674.774056 51.7913932,674.908343 52.488157,675.447874 Z M68.75,670 C74.9632034,670 80,675.036797 80,681.25 C80,687.463203 74.9632034,692.5 68.75,692.5 C62.5367966,692.5 57.5,687.463203 57.5,681.25 C57.5,675.036797 62.5367966,670 68.75,670 Z M68.75,672.5 C63.9175084,672.5 60,676.417508 60,681.25 C60,686.082492 63.9175084,690 68.75,690 C73.5824916,690 77.5,686.082492 77.5,681.25 C77.5,676.417508 73.5824916,672.5 68.75,672.5 Z M52.5,685.625 L52.5672502,685.626184 C53.5716357,685.661591 54.375,686.486978 54.375,687.5 C54.375,688.535534 53.5355339,689.375 52.5,689.375 C51.4644661,689.375 50.625,688.535534 50.625,687.5 C50.625,686.486978 51.4283643,685.661591 52.4327498,685.626184 L52.5,685.625 Z M68.75,673.75 C69.4200514,673.75 69.9669667,674.277208 69.9985585,674.939436 L70,675 L71.25,675 C71.9403559,675 72.5,675.559644 72.5,676.25 C72.5,676.920051 71.9727921,677.466967 71.3105636,677.498559 L71.25,677.5 L67.8625397,677.5 C67.3900706,677.50033 66.9841467,677.835549 66.8944898,678.299434 C66.8082813,678.745477 67.0377476,679.190088 67.4432671,679.379642 L67.4927656,679.401148 L70.9349292,680.778683 C72.4838545,681.401908 73.3735799,683.035704 73.056752,684.674972 C72.7633156,686.193211 71.5111964,687.321437 70.0007814,687.480683 L70,687.5 C70,688.190356 69.4403559,688.75 68.75,688.75 C68.0799486,688.75 67.5330333,688.222792 67.5014415,687.560564 L67.5,687.5 L66.25,687.5 C65.5596441,687.5 65,686.940356 65,686.25 C65,685.579949 65.5272079,685.033033 66.1894364,685.001441 L66.25,685 L69.634127,685 C70.1065961,684.99967 70.51252,684.664451 70.6021768,684.200566 C70.6883853,683.754523 70.4589191,683.309912 70.0533996,683.120358 L70.0039011,683.098852 L66.5617375,681.721317 C65.0128122,681.098092 64.1230868,679.464296 64.4399147,677.825028 C64.7336104,676.305446 65.9876847,675.176569 67.4998914,675.018897 L67.5,675 C67.5,674.309644 68.0596441,673.75 68.75,673.75 Z" id="Banking"></path>
        </g>
    </g>
</svg>