<?xml version="1.0" encoding="UTF-8"?>
<svg width="40px" height="40px" viewBox="0 0 40 40" version="1.1" xmlns="http://www.w3.org/2000/svg" xmlns:xlink="http://www.w3.org/1999/xlink">
    <title>6430554E-98D0-4CBE-BA5B-0945DFDAF8E5</title>
    <g id="TaaS-ROI" stroke="none" stroke-width="1" fill="none" fill-rule="evenodd">
        <g id="Additional-Assets" transform="translate(-110.000000, -670.000000)" fill="#8231A9" fill-rule="nonzero">
            <path d="M122.667191,705.999467 L122.738923,706.000729 C123.810247,706.038502 124.667152,706.919032 124.667152,707.999733 C124.667152,709.10445 123.771739,710 122.667191,710 C121.562642,710 120.667229,709.10445 120.667229,707.999733 C120.667229,706.919032 121.524134,706.038502 122.595458,706.000729 L122.667191,705.999467 Z M136.000268,705.999467 L136.072001,706.000729 C137.143325,706.038502 138.00023,706.919032 138.00023,707.999733 C138.00023,709.10445 137.104817,710 136.000268,710 C134.89572,710 134.000307,709.10445 134.000307,707.999733 C134.000307,706.919032 134.857212,706.038502 135.928536,706.000729 L136.000268,705.999467 Z M148.666692,670 C149.403058,670 150,670.597033 150,671.333511 C150,672.048328 149.437656,672.631782 148.731292,672.665485 L148.666692,672.667022 L146.917392,672.667022 C146.288724,672.667022 145.748789,673.104972 145.614918,673.712669 L145.602531,673.776129 L140.914708,701.334845 C140.593608,703.227001 138.976127,704.619672 137.06663,704.664825 L136.970916,704.665955 L119.333921,704.665955 C118.597556,704.665955 118.000613,704.068922 118.000613,703.332444 C118.000613,702.617628 118.562958,702.034173 119.269321,702.000471 L119.333921,701.998933 L136.970916,701.998933 C137.599701,701.998933 138.139739,701.560528 138.273412,700.951635 L138.285778,700.888048 L139.004,696.664 L119.124001,696.664889 C116.103781,696.664557 113.466351,694.63453 112.686147,691.726021 L112.657415,691.615152 L110.07973,681.302841 C109.880387,680.505804 110.059466,679.66136 110.565145,679.013882 C111.052095,678.390384 111.789557,678.016551 112.576387,677.990123 L112.667382,677.988621 L142.18,677.988 L142.973752,673.328444 C143.295889,671.437927 144.912188,670.047006 146.820132,670.001167 L146.917392,670 L148.666692,670 Z M141.727,680.655 L112.66664,680.655643 L115.244368,690.968129 C115.681866,692.717384 117.233454,693.953675 119.027795,693.996707 L119.124147,693.997866 L139.457,693.997 L141.727,680.655 Z M119.333921,683.329777 C120.048629,683.329777 120.631994,683.892207 120.665691,684.598679 L120.667229,684.663288 L120.667229,688.663822 C120.667229,689.4003 120.070287,689.997333 119.333921,689.997333 C118.619213,689.997333 118.035848,689.434903 118.002151,688.728432 L118.000613,688.663822 L118.000613,684.663288 C118.000613,683.926811 118.597556,683.329777 119.333921,683.329777 Z M127.333768,683.329777 C128.048476,683.329777 128.631841,683.892207 128.665538,684.598679 L128.667076,684.663288 L128.667076,688.663822 C128.667076,689.4003 128.070133,689.997333 127.333768,689.997333 C126.61906,689.997333 126.035695,689.434903 126.001998,688.728432 L126.00046,688.663822 L126.00046,684.663288 C126.00046,683.926811 126.597402,683.329777 127.333768,683.329777 Z M135.333614,683.329777 C136.048322,683.329777 136.631687,683.892207 136.665385,684.598679 L136.666922,684.663288 L136.666922,688.663822 C136.666922,689.4003 136.06998,689.997333 135.333614,689.997333 C134.618907,689.997333 134.035542,689.434903 134.001844,688.728432 L134.000307,688.663822 L134.000307,684.663288 C134.000307,683.926811 134.597249,683.329777 135.333614,683.329777 Z" id="Consumer-Goods"></path>
        </g>
    </g>
</svg>