<?xml version="1.0" encoding="UTF-8"?>
<svg width="40px" height="40px" viewBox="0 0 40 40" version="1.1" xmlns="http://www.w3.org/2000/svg" xmlns:xlink="http://www.w3.org/1999/xlink">
    <title>AA56E584-5E15-4FBF-9DF9-035CA655AE27</title>
    <g id="TaaS-ROI" stroke="none" stroke-width="1" fill="none" fill-rule="evenodd">
        <g id="Additional-Assets" transform="translate(-180.000000, -670.000000)" fill="#8231A9" fill-rule="nonzero">
            <path d="M194.338904,705.806235 C198.122576,707.861578 202.621969,707.952214 206.480194,706.050809 C207.103408,705.743678 207.84942,706.017078 208.14646,706.661465 C208.4435,707.305852 208.179083,708.07721 207.555869,708.384341 C202.98632,710.6363 197.657392,710.528954 193.176141,708.094675 C192.56497,707.762678 192.329811,706.981257 192.650899,706.349321 C192.971987,705.717386 193.727733,705.474238 194.338904,705.806235 Z M202.588137,670.07328 C204.088995,670.408776 205.126414,671.821441 205.044778,673.395168 L205.039211,673.481161 L203.799931,690.004112 C204.391523,690.594689 204.828493,691.349779 205.041917,692.198118 L205.894048,691.887747 C208.304515,691.009085 210.984458,691.785634 212.603141,693.819886 L212.677091,693.914666 L219.295503,702.569141 L219.33121,702.614713 C220.252505,703.823962 220.218585,705.540376 219.250284,706.709701 L219.191065,706.779196 C218.164538,707.950007 216.473059,708.177362 215.190553,707.326633 L215.118402,707.277326 L201.888673,697.903734 C201.49326,698.019888 201.075879,698.082061 200.644454,698.082061 C200.229469,698.082061 199.827479,698.024536 199.445534,697.916777 L199.278169,698.836285 C198.808216,701.438929 196.811181,703.452682 194.293531,703.879257 L194.183743,703.896801 L183.626671,705.496076 L183.579108,705.504064 C182.072812,705.73502 180.618909,704.805908 180.15031,703.298986 C179.681865,701.792563 180.33903,700.162003 181.694764,699.440402 L181.770798,699.401255 L196.235883,692.24319 C196.440172,691.396595 196.866584,690.640907 197.447408,690.046141 L196.75972,689.439218 C194.822837,687.718614 194.134307,684.934135 195.025247,682.466959 L195.06749,682.35332 L199.003581,672.104429 L199.022717,672.052289 C199.578141,670.581201 201.087279,669.737784 202.588137,670.07328 Z M206.813253,694.294976 L206.724864,694.325872 L204.917476,694.984677 C204.738974,695.494074 204.477696,695.962465 204.150445,696.372473 L216.528403,705.142636 C216.784768,705.323056 217.13052,705.280537 217.338806,705.042976 C217.53552,704.818612 217.552793,704.485087 217.386694,704.24135 L217.355478,704.199311 L217.334586,704.172723 L210.716122,695.518187 C209.788195,694.305195 208.230522,693.820661 206.813253,694.294976 Z M196.388857,695.033551 L182.852604,701.731753 C182.572909,701.870964 182.435386,702.202163 182.530402,702.507716 C182.620668,702.797992 182.894519,702.980608 183.183821,702.950626 L183.229604,702.944109 L183.264249,702.938346 L193.822842,701.338842 C195.306009,701.116085 196.493623,699.960716 196.803496,698.450183 L196.820708,698.360923 L197.173665,696.416042 C196.840564,696.008777 196.5733,695.542094 196.388857,695.033551 Z M200.644454,691.271356 C200.404652,691.271356 200.174497,691.314066 199.960718,691.392532 C199.954055,691.396238 199.94705,691.398856 199.940026,691.401408 C199.158462,691.697132 198.601042,692.473354 198.601042,693.384191 C198.601042,694.551078 199.515909,695.497026 200.644454,695.497026 C201.772999,695.497026 202.687865,694.551078 202.687865,693.384191 C202.687865,692.680019 202.354702,692.056305 201.842468,691.672379 C201.823001,691.660324 201.80373,691.647125 201.784853,691.633405 C201.459814,691.404042 201.06712,691.271356 200.644454,691.271356 Z M210.161456,679.998076 C213.649395,682.647013 215.95527,686.6398 216.556285,691.071176 C216.652163,691.778096 216.175645,692.431533 215.491952,692.530668 C214.80826,692.629803 214.176293,692.137096 214.080416,691.430175 C213.572997,687.688901 211.626218,684.317915 208.681459,682.081499 C208.125041,681.658924 208.005284,680.849969 208.413974,680.274648 C208.822664,679.699326 209.605038,679.575501 210.161456,679.998076 Z M192.874793,680.27445 C193.283588,680.849691 193.16398,681.65867 192.60764,682.081354 C189.663282,684.318355 187.716565,687.689232 187.208459,691.430418 C187.112452,692.13732 186.480395,692.629903 185.79672,692.530634 C185.113046,692.431365 184.636648,691.777835 184.732655,691.070933 C185.334439,686.64 187.640064,682.647648 191.12726,679.998221 C191.6836,679.575537 192.465997,679.699209 192.874793,680.27445 Z M201.362769,672.96491 L201.33123,673.048248 L197.391758,683.305617 C196.841631,684.744193 197.214557,686.381069 198.316687,687.412624 L198.386518,687.476301 L199.83968,688.759788 C200.100885,688.711514 200.369824,688.686321 200.644454,688.686321 C200.896911,688.686321 201.144558,688.707611 201.385809,688.748548 L202.546864,673.277825 C202.57171,672.957613 202.363513,672.667824 202.059843,672.599943 C201.771356,672.535455 201.48133,672.690156 201.362769,672.96491 Z" id="Energy"></path>
        </g>
    </g>
</svg>