<?xml version="1.0" encoding="UTF-8"?>
<svg width="40px" height="40px" viewBox="0 0 40 40" version="1.1" xmlns="http://www.w3.org/2000/svg" xmlns:xlink="http://www.w3.org/1999/xlink">
    <title>C3C63060-7104-4EDC-A6FA-FE4329C9187B</title>
    <g id="TaaS-ROI" stroke="none" stroke-width="1" fill="none" fill-rule="evenodd">
        <g id="Additional-Assets" transform="translate(-250.000000, -670.000000)" fill="#8231A9" fill-rule="nonzero">
            <path d="M285.236295,678.41868 C286.366227,678.101738 287.579334,678.332309 288.514305,679.041721 C289.449391,679.751221 289.998217,680.85776 289.997679,682.030804 L289.997679,682.030804 L289.997621,693.954536 C290.028786,697.207277 288.83683,700.352964 286.652749,702.773744 C283.80324,705.891928 280.254611,708.289141 276.29131,709.771017 C275.457824,710.076798 274.542902,710.076798 273.701784,709.768188 C269.746961,708.287984 266.199289,705.891013 263.344288,702.767846 C261.165562,700.352964 259.973606,697.207277 260.004713,693.966516 L260.004713,693.966516 L260.004713,682.030235 C260.005247,680.859268 260.552539,679.755757 261.484308,679.046914 C262.416077,678.33807 263.625367,678.105262 264.763283,678.420242 C271.452265,680.32964 278.541796,680.32964 285.230778,678.420242 L285.230778,678.420242 Z M287.003807,681.033655 C286.69215,680.797184 286.287781,680.720327 285.911137,680.825975 L285.911137,680.825975 L285.645415,680.900802 C278.587929,682.861455 271.124468,682.836026 264.087089,680.827135 C263.711011,680.723049 263.307915,680.800652 262.997325,681.036933 C262.686735,681.273214 262.504305,681.641051 262.504127,682.030804 L262.504127,682.030804 L262.503727,694.132844 C262.516949,696.703532 263.475463,699.181556 265.194305,701.086746 C267.777183,703.912193 270.992904,706.084883 274.570047,707.423758 C274.847876,707.525685 275.15285,707.525685 275.423429,707.426443 C279.008994,706.08578 282.225293,703.913067 284.802588,701.0928 C286.561306,699.143452 287.523479,696.604182 287.498265,693.966516 L287.498265,693.966516 L287.498265,682.029944 C287.498748,681.638948 287.315545,681.270187 287.003807,681.033655 Z M279.991692,695.004911 C280.681886,695.004911 281.241399,695.564588 281.241399,696.254985 C281.241399,699.706971 278.443835,702.505358 274.992865,702.505358 C271.541894,702.505358 268.74433,699.706971 268.74433,696.254985 C268.74433,695.564588 269.303843,695.004911 269.994037,695.004911 C270.684231,695.004911 271.243744,695.564588 271.243744,696.254985 C271.243744,698.326176 272.922282,700.005209 274.992865,700.005209 C277.033867,700.005209 278.693947,698.373806 278.740961,696.343507 L278.741985,696.254985 C278.741985,695.564588 279.301498,695.004911 279.991692,695.004911 Z M254.774106,670.143124 C261.46015,672.052567 268.546931,672.052567 275.242806,670.14036 C276.371039,669.828102 277.580328,670.06091 278.512097,670.769754 C279.415631,671.457117 279.957637,672.515591 279.990142,673.647338 L279.991692,673.753644 L279.991692,676.728822 C279.991692,677.419219 279.432179,677.978896 278.741985,677.978896 C278.072091,677.978896 277.525304,677.451657 277.49372,676.789389 L277.492278,676.728822 L277.492279,673.754214 C277.492101,673.363891 277.30967,672.996055 276.99908,672.759773 C276.688491,672.523492 276.285394,672.445889 275.919147,672.547211 C268.784615,674.584736 261.222467,674.584736 254.089433,672.547638 C253.712225,672.440421 253.30658,672.516528 252.993853,672.753189 C252.699522,672.97593 252.519625,673.316579 252.499942,673.684385 L252.49814,673.753644 L252.498083,685.703002 C252.472926,688.328689 253.4351,690.867959 255.186053,692.808781 C255.453055,693.09929 255.741904,693.398173 256.051526,693.704643 C256.542129,694.190252 256.546294,694.981744 256.060828,695.472491 C255.575363,695.963238 254.784103,695.967404 254.2935,695.481796 C253.956689,695.148414 253.640573,694.821316 253.338301,694.492353 C251.197798,692.119837 250.009746,689.041934 249.998217,685.861498 L249.998728,673.755412 C249.997064,672.578647 250.547688,671.469336 251.485869,670.759351 C252.42405,670.049366 253.640987,669.821046 254.774106,670.143124 Z M268.74433,685.004315 C270.814912,685.004315 272.493451,686.683347 272.493451,688.754538 C272.493451,689.444935 271.933938,690.004613 271.243744,690.004613 C270.57385,690.004613 270.027063,689.477373 269.995478,688.815106 L269.994037,688.754538 C269.994037,688.064141 269.434524,687.504464 268.74433,687.504464 C268.074436,687.504464 267.527649,688.031703 267.496064,688.693971 L267.494623,688.754538 C267.494623,689.444935 266.93511,690.004613 266.244916,690.004613 C265.554722,690.004613 264.995209,689.444935 264.995209,688.754538 C264.995209,686.683347 266.673748,685.004315 268.74433,685.004315 Z M281.241399,685.004315 C283.311981,685.004315 284.99052,686.683347 284.99052,688.754538 C284.99052,689.444935 284.431007,690.004613 283.740813,690.004613 C283.070919,690.004613 282.524132,689.477373 282.492547,688.815106 L282.491106,688.754538 C282.491106,688.064141 281.931593,687.504464 281.241399,687.504464 C280.571505,687.504464 280.024718,688.031703 279.993133,688.693971 L279.991692,688.754538 C279.991692,689.444935 279.432179,690.004613 278.741985,690.004613 C278.051791,690.004613 277.492278,689.444935 277.492278,688.754538 C277.492278,686.683347 279.170817,685.004315 281.241399,685.004315 Z" id="Entertainment"></path>
        </g>
    </g>
</svg>