<?xml version="1.0" encoding="UTF-8"?>
<svg width="34px" height="34px" viewBox="0 0 34 34" version="1.1" xmlns="http://www.w3.org/2000/svg" xmlns:xlink="http://www.w3.org/1999/xlink">
    <title>DA320459-5AD0-4D67-98EB-5A90B0B91800</title>
    <g id="TaaS-ROI" stroke="none" stroke-width="1" fill="none" fill-rule="evenodd">
        <g id="TaaS-Calc-Results" transform="translate(-489.000000, -595.000000)" fill="#AAAAAA">
            <path d="M506,597.833333 C513.8115,597.833333 520.166667,604.1885 520.166667,612 C520.166667,619.8115 513.8115,626.166667 506,626.166667 C498.1885,626.166667 491.833333,619.8115 491.833333,612 C491.833333,604.1885 498.1885,597.833333 506,597.833333 Z M506,595 C496.61175,595 489,602.61175 489,612 C489,621.38825 496.61175,629 506,629 C515.38825,629 523,621.38825 523,612 C523,602.61175 515.38825,595 506,595 Z M503.166667,609.166667 L500.333333,609.166667 L500.333333,612 L503.166667,612 L503.166667,620.5 L507.416667,620.5 L507.416667,612 L509.995,612 L510.25,609.166667 L507.416667,609.166667 L507.416667,607.986583 C507.416667,607.309417 507.552667,607.041667 508.207167,607.041667 L510.25,607.041667 L510.25,603.5 L506.844333,603.5 C504.297167,603.5 503.166667,604.622 503.166667,606.769667 L503.166667,609.166667 Z" id="Shape"></path>
        </g>
    </g>
</svg>