<?xml version="1.0" encoding="UTF-8"?>
<svg width="40px" height="40px" viewBox="0 0 40 40" version="1.1" xmlns="http://www.w3.org/2000/svg" xmlns:xlink="http://www.w3.org/1999/xlink">
    <title>8227FDEA-9E93-405D-ADD2-FCCF1CA1DF02</title>
    <g id="TaaS-ROI" stroke="none" stroke-width="1" fill="none" fill-rule="evenodd">
        <g id="Additional-Assets" transform="translate(-320.000000, -670.000000)" fill="#8231A9" fill-rule="nonzero">
            <path d="M340.321137,670.000039 C346.227857,669.992555 352.074012,671.056029 357.511926,673.133016 C359.037593,673.743438 360.011597,675.080652 359.999896,676.539668 L359.999896,676.539668 L359.999896,689.229163 C359.999896,697.956775 353.85684,705.783168 344.546606,708.916871 L344.546606,708.916871 L342.564234,709.583357 C340.913678,710.138855 339.086288,710.138855 337.43619,709.583511 L337.43619,709.583511 L335.452854,708.916701 C326.143126,705.783168 320.000105,697.956775 320.000105,689.229163 L320.000105,689.229163 L320.000105,676.548492 C319.988369,675.080652 320.962373,673.743438 322.510644,673.124178 C328.028556,671.01684 333.992863,669.952785 340.013234,670.001649 L339.999983,670.001881 Z M339.66267,672.49994 C334.154706,672.49439 328.704223,673.486451 323.676185,675.406501 C323.173979,675.607435 322.853347,676.047631 322.857245,676.539668 L322.857245,676.539668 L322.857245,689.229163 C322.857245,696.92243 328.27222,703.821305 336.478142,706.583312 L336.478142,706.583312 L338.461432,707.250106 C339.451766,707.583405 340.5482,707.583405 341.538993,707.249952 L341.538993,707.249952 L343.521318,706.583482 C351.727745,703.821305 357.142755,696.92243 357.142755,689.229163 L357.142755,689.229163 L357.142755,676.530844 C357.146619,676.047631 356.825987,675.607435 356.346385,675.415339 C351.197154,673.448803 345.631352,672.455843 340.013234,672.501442 L340.013234,672.501442 Z M342.857088,677.501296 C344.435023,677.501296 345.714193,678.62054 345.714193,680.001197 L345.714193,680.001197 L345.714193,682.501097 L348.571298,682.501097 C350.121056,682.501097 351.382623,683.580725 351.427184,684.927289 L351.427184,684.927289 L351.428403,685.000998 L351.428403,690.000799 C351.428403,691.381455 350.149233,692.500699 348.571298,692.500699 L348.571298,692.500699 L345.714193,692.500699 L345.714193,695.000599 C345.714193,696.356602 344.4803,697.460443 342.941329,697.499434 L342.941329,697.499434 L342.857088,697.5005 L337.142878,697.5005 C335.564942,697.5005 334.285773,696.381256 334.285773,695.000599 L334.285773,695.000599 L334.285773,692.500699 L331.428668,692.500699 C329.87891,692.500699 328.617343,691.421072 328.572781,690.074507 L328.572781,690.074507 L328.571563,690.000799 L328.571563,685.000998 C328.571563,683.620341 329.850733,682.501097 331.428668,682.501097 L331.428668,682.501097 L334.285773,682.501097 L334.285773,680.001197 C334.285773,678.645195 335.519666,677.541353 337.058637,677.502362 L337.058637,677.502362 L337.142878,677.501296 Z M342.857088,680.001197 L337.142878,680.001197 L337.142878,683.751048 C337.142878,684.441376 336.503293,685.000998 335.714325,685.000998 L335.714325,685.000998 L331.428668,685.000998 L331.428668,690.000799 L335.714325,690.000799 C336.503293,690.000799 337.142878,690.56042 337.142878,691.250749 L337.142878,691.250749 L337.142878,695.000599 L342.857088,695.000599 L342.857088,691.250749 C342.857088,690.56042 343.496672,690.000799 344.28564,690.000799 L344.28564,690.000799 L348.571298,690.000799 L348.571298,685.000998 L344.28564,685.000998 C343.496672,685.000998 342.857088,684.441376 342.857088,683.751048 L342.857088,683.751048 L342.857088,680.001197 Z" id="Healthcare"></path>
        </g>
    </g>
</svg>