<?xml version="1.0" encoding="UTF-8"?>
<svg width="16px" height="16px" viewBox="0 0 16 16" version="1.1" xmlns="http://www.w3.org/2000/svg" xmlns:xlink="http://www.w3.org/1999/xlink">
    <title>88B9633D-7251-4F4B-9E2D-372C66FAC7A4</title>
    <defs>
        <path d="M8,0 C12.4,0 16,3.6 16,8 C16,12.4 12.4,16 8,16 C3.6,16 0,12.4 0,8 C0,3.6 3.6,0 8,0 Z M8,2 C4.7,2 2,4.7 2,8 C2,11.3 4.7,14 8,14 C11.3,14 14,11.3 14,8 C14,4.7 11.3,2 8,2 Z M9.0003,7 L9.0003,12 L7.0003,12 L7.0003,7 L9.0003,7 Z M8,4 C8.552,4 9,4.448 9,5 C9,5.552 8.552,6 8,6 C7.448,6 7,5.552 7,5 C7,4.448 7.448,4 8,4 Z" id="path-1"></path>
    </defs>
    <g id="TaaS-ROI" stroke="none" stroke-width="1" fill="none" fill-rule="evenodd">
        <g id="TaaS-Calc-Landing" transform="translate(-862.000000, -448.000000)">
            <g id="icons/meta/info" transform="translate(862.000000, 448.000000)">
                <mask id="mask-2" fill="white">
                    <use xlink:href="#path-1"></use>
                </mask>
                <use id="icon-color" fill="#AAAAAA" xlink:href="#path-1"></use>
            </g>
        </g>
    </g>
</svg>