<?xml version="1.0" encoding="UTF-8"?>
<svg width="172px" height="8px" viewBox="0 0 172 8" version="1.1" xmlns="http://www.w3.org/2000/svg" xmlns:xlink="http://www.w3.org/1999/xlink">
    <title>6C0BA479-C2C3-479F-80CF-3670ED67E7EA</title>
    <g id="TaaS-ROI" stroke="none" stroke-width="1" fill="none" fill-rule="evenodd" stroke-linecap="round">
        <g id="Additional-Assets" transform="translate(-94.000000, -504.000000)" stroke="#F4F4F4" stroke-width="2">
            <path d="M95,505 C103.499766,505 103.499766,511 111.999532,511 C120.499298,511 120.499298,505 128.999339,505 C137.49883,505 137.49883,511 145.998596,511 C154.498362,511 154.498362,505 162.998404,505 C171.498445,505 171.498445,511 179.998211,511 C188.497702,511 188.497702,505 196.997468,505 C205.497234,505 205.497234,511 213.997,511 C222.497317,511 222.497317,505 230.997633,505 C239.498225,505 239.498225,511 247.998541,511 C256.499408,511 256.499408,505 265,505" id="Stroke-1"></path>
        </g>
    </g>
</svg>