<?xml version="1.0" encoding="UTF-8"?>
<svg width="34px" height="34px" viewBox="0 0 34 34" version="1.1" xmlns="http://www.w3.org/2000/svg" xmlns:xlink="http://www.w3.org/1999/xlink">
    <title>9A1D543A-30D6-49B4-8E1E-3F02917BDB8E</title>
    <g id="TaaS-ROI" stroke="none" stroke-width="1" fill="none" fill-rule="evenodd">
        <g id="TaaS-Calc-Results" transform="translate(-528.000000, -595.000000)" fill="#AAAAAA">
            <path d="M545,597.833333 C552.8115,597.833333 559.166667,604.1885 559.166667,612 C559.166667,619.8115 552.8115,626.166667 545,626.166667 C537.1885,626.166667 530.833333,619.8115 530.833333,612 C530.833333,604.1885 537.1885,597.833333 545,597.833333 Z M545,595 C535.61175,595 528,602.61175 528,612 C528,621.38825 535.61175,629 545,629 C554.38825,629 562,621.38825 562,612 C562,602.61175 554.38825,595 545,595 Z M542.166667,606.333333 C542.166667,607.122417 541.533417,607.761333 540.75,607.761333 C539.966583,607.761333 539.333333,607.123833 539.333333,606.333333 C539.333333,605.54425 539.966583,604.905333 540.75,604.905333 C541.533417,604.905333 542.166667,605.545667 542.166667,606.333333 L542.166667,606.333333 Z M542.166667,609.166667 L539.333333,609.166667 L539.333333,617.666667 L542.166667,617.666667 L542.166667,609.166667 Z M546.416667,609.166667 L543.583333,609.166667 L543.583333,617.666667 L546.416667,617.666667 L546.416667,613.613583 C546.416667,611.174083 549.252833,610.948833 549.252833,613.613583 L549.252833,617.666667 L552.083333,617.666667 L552.083333,612.908083 C552.083333,608.25575 547.652,608.42575 546.416667,610.715083 L546.416667,609.166667 Z" id="Shape"></path>
        </g>
    </g>
</svg>