<?xml version="1.0" encoding="UTF-8"?>
<svg width="16px" height="16px" viewBox="0 0 16 16" version="1.1" xmlns="http://www.w3.org/2000/svg" xmlns:xlink="http://www.w3.org/1999/xlink">
    <title>D71FCA77-E5B3-4C43-BE47-BCA0C8752541</title>
    <g id="TaaS-ROI" stroke="none" stroke-width="1" fill="none" fill-rule="evenodd">
        <g id="Additional-Assets" transform="translate(-94.000000, -360.000000)" fill="#7F7F7F" fill-rule="nonzero">
            <path d="M102,360 C104.446749,360 106.636951,361.098411 108.104399,362.829026 C108.24131,362.852291 108.359437,362.935206 108.434214,363.052158 L108.434214,363.052158 L108.441228,363.063581 L108.474411,363.110895 C109.242361,364.220699 109.724279,365.491171 109.911311,366.804421 C109.96969,367.194196 110,367.593559 110,368 C110,368.053902 109.999467,368.107679 109.998406,368.161327 C109.984505,369.429954 109.698048,370.700843 109.13231,371.871384 L109.13231,371.871384 L109.090148,371.957392 C109.028811,372.08077 108.924974,372.170789 108.803725,372.211353 C107.393196,374.484992 104.873523,376 102,376 C97.581722,376 94,372.418278 94,368 C94,367.935977 94.0007521,367.872129 94.0022479,367.808465 C93.9907578,367.226117 94.04597,366.637621 94.170517,366.052529 C94.1907252,365.957596 94.2379283,365.873417 94.3035319,365.806705 C95.2572014,362.4553 98.3418676,360 102,360 Z M102,361 C98.9593692,361 96.3715403,362.938676 95.4051634,365.647377 L98.4697615,365.647059 C99.1987403,365.647059 99.834181,366.121533 100.011101,366.797909 L100.011101,366.797909 L100.540727,368.82387 C100.659463,369.277805 100.552885,369.758739 100.251813,370.127592 C99.9507424,370.496445 99.4887588,370.712077 98.9994054,370.712128 L98.9994054,370.712128 L98.6715629,370.712128 L98.0449495,373.709995 C98.0410311,373.728738 98.036137,373.746946 98.0303358,373.764596 C99.1563013,374.543709 100.524864,375 102,375 C104.273956,375 106.294664,373.915719 107.573316,372.235967 L107.398954,372.235294 C106.680012,372.235537 106.066289,371.681456 105.94787,370.925048 L105.94787,370.925048 L105.499046,368.051126 L104.882283,368.051126 C104.439701,368.051074 104.021261,367.838523 103.74238,367.473544 L103.74238,367.473544 L103.723151,367.447834 C103.44449,367.067145 103.345845,366.570778 103.455727,366.102346 L103.455727,366.102346 L103.945963,364.011239 C104.109697,363.313228 104.697839,362.823529 105.372556,362.823529 L105.372556,362.823529 L106.711161,362.822584 C105.467535,361.690295 103.814381,361 102,361 Z M98.4697615,366.660073 L95.1348975,366.660073 L95.1254167,366.725237 C94.8200068,368.897043 95.5846052,371.076498 97.1785614,372.630838 L97.1785614,372.630838 L97.1883057,372.640177 L97.7180579,370.106325 C97.7661807,369.87613 97.9729907,369.708634 98.2164679,369.699507 L98.2164679,369.699507 L98.9993473,369.699114 C99.1624457,369.699097 99.3164403,369.62722 99.4167973,369.504269 C99.5171543,369.381318 99.5526804,369.221007 99.5130845,369.069629 L99.5130845,369.069629 L98.983458,367.043667 C98.9244881,366.818221 98.7126868,366.660073 98.4697615,366.660073 L98.4697615,366.660073 Z M107.651617,363.868908 L105.372556,363.869049 C105.154326,363.869049 104.963234,364.022812 104.902292,364.244541 L104.902292,364.244541 L104.897113,364.264883 L104.406877,366.355991 C104.370244,366.512157 104.403126,366.677613 104.496013,366.804509 C104.5889,366.931405 104.731432,367.005589 104.882336,367.005607 L104.882336,367.005607 L105.914413,367.005607 C106.154077,367.005607 106.358605,367.190395 106.397974,367.442495 L106.397974,367.442495 L106.914959,370.753096 C106.954421,371.005162 107.158996,371.189856 107.398798,371.189775 L107.398798,371.189775 L108.232657,371.189779 C108.723203,370.2332 109,369.148925 109,368 C109,366.454945 108.499429,365.026805 107.651617,363.868908 Z" id="Combined-Shape"></path>
        </g>
    </g>
</svg>