<?xml version="1.0" encoding="UTF-8"?>
<svg width="40px" height="40px" viewBox="0 0 40 40" version="1.1" xmlns="http://www.w3.org/2000/svg" xmlns:xlink="http://www.w3.org/1999/xlink">
    <title>1FCDDCFF-E076-465E-B3B6-51CE92B4B50F</title>
    <g id="TaaS-ROI" stroke="none" stroke-width="1" fill="none" fill-rule="evenodd">
        <g id="Additional-Assets" transform="translate(-390.000000, -670.000000)" fill="#8231A9" fill-rule="nonzero">
            <path d="M426.129025,670 C428.266906,670 430,671.678932 430,673.75 L430,673.75 L430,677.5 C430,678.880712 428.844604,680 427.41935,680 L427.41935,680 L427.41935,706.25 C427.41935,708.291481 425.735419,709.95195 423.639747,709.998976 L423.548376,710 L408.064477,710 C405.926597,710 404.193502,708.321068 404.193502,706.25 C404.193502,705.559644 404.7712,705 405.483827,705 C406.175494,705 406.740053,705.527208 406.772664,706.189436 L406.774152,706.25 C406.774152,706.920051 407.318368,707.466967 408.001959,707.498559 L408.064477,707.5 L423.548376,707.5 C424.240043,707.5 424.804601,706.972792 424.837212,706.310564 L424.8387,706.25 L424.838,702.5 L413.225776,702.5 C412.557689,702.5 412.008191,702.008125 411.942113,701.377805 L411.935452,701.25 L411.935452,688.75 C411.935452,688.059644 412.51315,687.5 413.225776,687.5 L413.225776,687.5 L424.838,687.5 L424.838504,680 L406.773955,680 L406.774152,688.75 C406.774152,689.420051 406.229936,689.966967 405.546345,689.998559 L405.483827,690 C404.79216,690 404.227601,689.472792 404.19499,688.810564 L404.193502,688.75 L404.193502,680 C402.768249,680 401.612852,678.880712 401.612852,677.5 L401.612852,677.5 L401.612852,673.75 C401.612852,671.678932 403.345947,670 405.483827,670 L405.483827,670 Z M400.44239,692.732783 C401.762557,691.453874 403.686743,690.954402 405.490125,691.422516 C407.293506,691.890629 408.702108,693.25521 409.185323,695.002233 C409.668537,696.749256 409.152953,698.613307 407.832346,699.892643 L407.832346,699.892643 L398.920942,708.517217 C396.880141,710.49424 393.571348,710.49424 391.530546,708.517217 C389.489745,706.540194 389.489745,703.334806 391.530987,701.357357 L391.530987,701.357357 L395.969187,697.059727 C395.973757,697.055164 395.978371,697.050628 395.983027,697.046117 L395.999,697.032 Z M396.896,699.698 L393.355341,703.12555 C392.322346,704.126262 392.322346,705.748738 393.355341,706.74945 C394.388336,707.750162 396.063152,707.750162 397.096588,706.749023 L397.096588,706.749023 L400.637,703.322 L396.896,699.698 Z M404.733687,693.815926 C403.846864,693.617107 402.913846,693.874099 402.266744,694.500977 L402.266744,694.500977 L398.721,697.931 L402.462,701.555 L406.007991,698.12445 C406.631673,697.520259 406.900589,696.658061 406.734813,695.826823 L406.692606,695.64928 C406.448017,694.764987 405.735023,694.074276 404.822203,693.83733 L404.822203,693.83733 Z M424.838504,690 L414.515905,690 L414.515905,700 L424.838504,700 L424.838504,690 Z M426.129025,672.5 L405.483827,672.5 C404.7712,672.5 404.193502,673.059644 404.193502,673.75 L404.193502,673.75 L404.193502,677.5 L427.41935,677.5 L427.41935,673.75 C427.41935,673.059644 426.841652,672.5 426.129025,672.5 L426.129025,672.5 Z" id="Pharma"></path>
        </g>
    </g>
</svg>