<?xml version="1.0" encoding="UTF-8"?>
<svg width="40px" height="40px" viewBox="0 0 40 40" version="1.1" xmlns="http://www.w3.org/2000/svg" xmlns:xlink="http://www.w3.org/1999/xlink">
    <title>D9058B81-A7F1-4B0D-8073-768D60FEACE1</title>
    <g id="TaaS-ROI" stroke="none" stroke-width="1" fill="none" fill-rule="evenodd">
        <g id="Additional-Assets" transform="translate(-600.000000, -670.000000)" fill="#8231A9" fill-rule="nonzero">
            <path d="M638.666667,707.5 C639.403046,707.5 640,708.059644 640,708.75 C640,709.420051 639.437645,709.966967 638.731268,709.998559 L638.666667,710 L601.333333,710 C600.596954,710 600,709.440356 600,708.75 C600,708.079949 600.562355,707.533033 601.268732,707.501441 L601.333333,707.5 L638.666667,707.5 Z M604,705 C603.26362,705 602.666667,704.440356 602.666667,703.75 C602.666667,703.079949 603.229022,702.533033 603.935399,702.501441 L604,702.5 L605.333,702.5 L605.333333,695 C603.917219,695 602.758918,693.965155 602.671913,692.658104 L602.666667,692.5 C602.666667,691.214858 603.54441,690.074108 604.844094,689.669161 L604.844094,689.669161 L608,688.683 L608,683.75 C608,677.959378 612.66662,673.190582 618.666449,672.568684 L618.666667,671.25 C618.666667,670.559644 619.26362,670 620,670 C620.714721,670 621.298098,670.527208 621.331796,671.189436 L621.333333,671.25 L621.333551,672.568684 C627.234339,673.180316 631.84557,677.803068 631.9962,683.464086 L632,683.75 L632,688.682 L635.154735,689.668795 C636.393645,690.054808 637.248779,691.107883 637.327411,692.317454 L637.333333,692.5 C637.333333,693.880712 636.139426,695 634.666667,695 L634.666667,695 L634.666,702.5 L636,702.5 C636.73638,702.5 637.333333,703.059644 637.333333,703.75 C637.333333,704.420051 636.770978,704.966967 636.064601,704.998559 L636,705 L604,705 Z M616,694.999 L613.333,694.999 L613.333,702.5 L616,702.5 L616,694.999 Z M626.666,694.999 L624,694.999 L624,702.5 L626.666,702.5 L626.666,694.999 Z M610.666667,695 L607.999695,695 L607.999695,702.5 L610.666667,702.5 L610.666667,695 Z M621.333333,695 L618.666362,695 L618.666362,702.5 L621.333333,702.5 L621.333333,695 Z M631.999695,695 L629.333029,695 L629.333029,702.5 L631.999695,702.5 L631.999695,695 Z M620.000254,687.567805 L605.686291,692.041205 C605.475552,692.106866 605.333333,692.291699 605.333333,692.5 L605.333333,692.5 L634.666667,692.5 C634.666667,692.291699 634.524448,692.106866 634.312538,692.040839 L634.312538,692.040839 L620.000254,687.567805 Z M620,675 C615.297848,675 611.407844,678.259896 610.761107,682.500514 L614.666667,682.5 C615.403046,682.5 616,683.059644 616,683.75 C616,684.420051 615.437645,684.966967 614.731268,684.998559 L614.666667,685 L610.666667,685 L610.666,687.849 L619.159012,685.195195 C619.636797,685.046666 620.148159,685.0281 620.634339,685.139496 L620.840988,685.195195 L629.333,687.849 L629.333029,685 L625.333333,685 C624.618612,685 624.035236,684.472792 624.001538,683.810564 L624,683.75 C624,683.079949 624.562355,682.533033 625.268732,682.501441 L625.333333,682.5 L629.238893,682.500514 C628.592156,678.259896 624.702152,675 620,675 Z" id="Public-Sector"></path>
        </g>
    </g>
</svg>