<?xml version="1.0" encoding="UTF-8"?>
<svg width="30px" height="30px" viewBox="0 0 30 30" version="1.1" xmlns="http://www.w3.org/2000/svg" xmlns:xlink="http://www.w3.org/1999/xlink">
    <title>1EC5F9A7-BC95-472A-B330-F1AA074CE7EE</title>
    <g id="TaaS-ROI" stroke="none" stroke-width="1" fill="none" fill-rule="evenodd">
        <g id="TaaS-Calc-Results-V2" transform="translate(-1309.000000, -173.000000)">
            <g id="Group-3" transform="translate(1309.000000, 173.000000)">
                <circle id="Oval" fill="#AAAAAA" cx="15" cy="15" r="15"></circle>
                <path d="M14.770545,3.17942376 L14.7972222,3.20502525 L17.5664512,6.00502525 C17.5884604,6.02727898 17.6089946,6.05102412 17.6278927,6.07609786 L17.5664512,6.00502525 C17.6020003,6.04096937 17.6328752,6.07984996 17.6590759,6.1208948 C17.6673506,6.13396554 17.6753389,6.14744497 17.6828819,6.16120851 C17.690899,6.17572965 17.6984352,6.19075578 17.7054012,6.20598289 C17.7123007,6.22108865 17.7186984,6.2364628 17.7245578,6.2521046 C17.7295457,6.26550406 17.7341006,6.27892931 17.7382405,6.29245644 C17.7447346,6.31347196 17.7502516,6.33502081 17.7547544,6.35694537 C17.7570335,6.3683436 17.7590795,6.3797133 17.7608461,6.39111869 C17.7635197,6.40805141 17.7655607,6.42543019 17.7669606,6.442992 C17.7682757,6.45974627 17.769016,6.47620337 17.7691856,6.49266536 C17.7692114,6.4952046 17.7692233,6.49760089 17.7692233,6.5 C17.7692233,6.63777585 17.729857,6.76625503 17.661877,6.87456548 C17.6547922,6.88596674 17.6473332,6.89712575 17.6395214,6.90810746 C17.6271142,6.9254529 17.6142006,6.94197862 17.6005906,6.95787816 C17.5979203,6.96102802 17.5948661,6.96452643 17.5917714,6.96800105 L17.5664512,6.99497475 L14.7972222,9.79497475 C14.5268594,10.0683418 14.0885147,10.0683418 13.8181519,9.79497475 C13.5565105,9.53042603 13.5480704,9.10681006 13.7928318,8.83199895 L13.8181519,8.80502525 L15.406,7.199 L15,7.2 C10.7941362,7.2 7.38461451,10.6474074 7.38461451,14.9 C7.38461451,19.1525926 10.7941362,22.6 15,22.6 C15.2072962,22.6 15.421902,22.5909137 15.6364272,22.5733502 C16.0175306,22.5421487 16.3514918,22.8292332 16.3823504,23.2145714 C16.413209,23.5999096 16.1292794,23.9375817 15.748176,23.9687831 C15.497121,23.9893374 15.2452855,24 15,24 C10.0294347,24 6,19.9257912 6,14.9 C6,9.92446669 9.94924896,5.88157933 14.851163,5.80121914 L15,5.8 L15.404,5.799 L13.8181519,4.19497475 C13.5565105,3.93042603 13.5480704,3.50681006 13.7928318,3.23199895 L13.8181519,3.20502525 C14.0797933,2.94047654 14.4987539,2.93194271 14.770545,3.17942376 Z M21.7902315,19.7898774 C22.0822688,20.0394118 22.1189472,20.4810729 21.8721552,20.7763552 C21.7119227,20.9680706 21.5425174,21.1541942 21.3644557,21.334234 C20.8281763,21.8775116 20.2259332,22.3498441 19.5721345,22.7399313 C19.2428405,22.9364036 18.8183731,22.8257642 18.62406,22.4928113 C18.4297468,22.1598583 18.5391703,21.7306743 18.8684642,21.534202 C19.4214615,21.2042577 19.9308517,20.8047487 20.384917,20.3447586 C20.5362329,20.1917613 20.6794428,20.0344183 20.8145947,19.8727114 C21.0613867,19.5774291 21.4981942,19.5403431 21.7902315,19.7898774 Z M24.1193039,14.1435047 C24.1415215,14.3973494 24.153053,14.6519832 24.153053,14.899194 C24.1540019,15.6667977 24.0496805,16.4314119 23.8425812,17.1747205 C23.7382769,17.5490835 23.3256814,17.7743397 22.9210233,17.6778442 C22.5163653,17.5813487 22.2728805,17.1996425 22.3771848,16.8252795 C22.5523341,16.1966436 22.6405615,15.5499889 22.639753,14.9 C22.639753,14.6903946 22.6299314,14.4734041 22.6109466,14.2564953 C22.5772201,13.8711571 22.8875368,13.533485 23.3040582,13.5022835 C23.7205795,13.471082 24.0855775,13.7581666 24.1193039,14.1435047 Z M21.8934125,9.04998343 C22.3822194,9.63736285 22.7953004,10.2851099 23.1227491,10.9776902 C23.2876568,11.3264835 23.1416955,11.7444059 22.7967354,11.9111461 C22.4517752,12.0778863 22.0384456,11.9303031 21.8735378,11.5815098 C21.5966318,10.9958312 21.2473109,10.4480657 20.8339527,9.9513499 C20.5877826,9.65553729 20.6253905,9.21395603 20.9179522,8.96505055 C21.210514,8.71614507 21.6472424,8.75417082 21.8934125,9.04998343 Z" id="Combined-Shape" fill="#FFFFFF" fill-rule="nonzero"></path>
            </g>
        </g>
    </g>
</svg>