<?xml version="1.0" encoding="UTF-8"?>
<svg width="40px" height="40px" viewBox="0 0 40 40" version="1.1" xmlns="http://www.w3.org/2000/svg" xmlns:xlink="http://www.w3.org/1999/xlink">
    <title>5C5DA8E7-198A-4A88-A922-F227C4379474</title>
    <g id="TaaS-ROI" stroke="none" stroke-width="1" fill="none" fill-rule="evenodd">
        <g id="Additional-Assets" transform="translate(-460.000000, -670.000000)" fill="#8231A9" fill-rule="nonzero">
            <path d="M480.243902,700 C480.91742,700 481.463415,700.559644 481.463415,701.25 L481.463415,701.25 L481.463415,708.75 C481.463415,709.440356 480.91742,710 480.243902,710 L480.243902,710 L468.04878,710 C467.375263,710 466.829268,709.440356 466.829268,708.75 L466.829268,708.75 L466.829268,701.25 C466.829268,700.559644 467.375263,700 468.04878,700 L468.04878,700 Z M480.000387,670 C484.30448,670.001071 488.6364,671.7578 491.303139,675.158458 C493.130538,677.488778 494.108219,680.442287 494.145249,683.999968 L498.799496,684 C499.462516,684 500,684.447715 500,685 C500,685.536041 499.493668,685.973573 498.857661,685.998847 L498.799496,686 L494.071613,686.000319 C493.896097,688.152317 493.409809,690.499352 492.595925,693.037905 C494.124085,693.203194 495.543157,693.936238 496.559216,695.102481 C497.696391,696.40774 498.218736,698.129356 497.999912,699.836468 L497.983441,699.95554 L496.647742,708.962216 C496.549346,709.625706 495.927113,710.084482 495.257947,709.986921 C494.608461,709.892228 494.153475,709.308246 494.21724,708.667324 L494.224475,708.608914 L495.560207,699.602009 C495.715783,698.554342 495.403865,697.491406 494.705693,696.690037 C494.030043,695.914519 493.057381,695.458259 492.026999,695.429949 L491.923778,695.428549 L467.105155,695.428548 C466.036615,695.429585 465.021179,695.890607 464.322263,696.692018 C463.645894,697.467578 463.330457,698.487958 463.449296,699.500779 L463.462631,699.602026 L464.799962,708.608702 C464.898476,709.272176 464.435884,709.889211 463.766735,709.98689 C463.117266,710.081695 462.511919,709.6524 462.386797,709.020428 L462.376757,708.962427 L461.03902,699.952992 C460.783945,698.207301 461.305921,696.437809 462.46954,695.103544 C463.606714,693.799603 465.24718,693.036909 466.982723,693.001303 L467.103957,693 L467.392075,692.999881 C466.585492,690.47587 466.103136,688.141466 465.92844,686.000147 L461.202971,686 C460.538589,686 460,685.552285 460,685 C460,684.463959 460.507373,684.026427 461.144686,684.001153 L461.202971,684 L465.854744,683.999731 C465.891655,680.441929 466.869165,677.488287 468.696368,675.157898 C471.363176,671.756688 475.695634,670 480.000387,670 Z M479.024158,702.5 L469.26806,702.5 L469.26806,707.5 L479.024158,707.5 L479.024158,702.5 Z M491.056911,705 C491.685527,705 492.195122,705.447715 492.195122,706 C492.195122,706.536041 491.715063,706.973573 491.112058,706.998847 L491.056911,707 L486.504065,707 C485.875448,707 485.365854,706.552285 485.365854,706 C485.365854,705.463959 485.845913,705.026427 486.448918,705.001153 L486.504065,705 L491.056911,705 Z M491.056911,700 C491.685527,700 492.195122,700.447715 492.195122,701 C492.195122,701.536041 491.715063,701.973573 491.112058,701.998847 L491.056911,702 L486.504065,702 C485.875448,702 485.365854,701.552285 485.365854,701 C485.365854,700.463959 485.845913,700.026427 486.448918,700.001153 L486.504065,700 L491.056911,700 Z M480.000086,672.499966 C476.39102,672.499966 472.773471,673.966779 470.617134,676.71694 C467.891641,680.192997 467.442127,685.564871 469.984407,692.999917 L490.015,693 L490.055077,692.884408 C492.553259,685.509368 492.094111,680.175541 489.382475,676.71763 C487.226108,673.967806 483.608775,672.500864 480.000086,672.499966 Z M484.878049,680 C486.763899,680 488.292683,681.567003 488.292683,683.5 C488.292683,685.432997 486.763899,687 484.878049,687 C482.992198,687 481.463415,685.432997 481.463415,683.5 C481.463415,681.567003 482.992198,680 484.878049,680 Z M474.390244,680.468911 C475.446735,679.843696 476.748387,679.843696 477.804878,680.468911 C478.86137,681.094126 479.512195,682.24957 479.512195,683.5 C479.512195,684.75043 478.86137,685.905874 477.804878,686.531089 C476.748387,687.156304 475.446735,687.156304 474.390244,686.531089 C473.333752,685.905874 472.682927,684.75043 472.682927,683.5 C472.682927,682.24957 473.333752,681.094126 474.390244,680.468911 Z M484.878049,682.333333 C484.249432,682.333333 483.739837,682.855668 483.739837,683.5 C483.739837,684.144332 484.249432,684.666667 484.878049,684.666667 C485.506666,684.666667 486.01626,684.144332 486.01626,683.5 C486.01626,682.855668 485.506666,682.333333 484.878049,682.333333 Z M476.666667,682.489637 C476.314503,682.281232 475.880619,682.281232 475.528455,682.489637 C475.176291,682.698042 474.95935,683.08319 474.95935,683.5 C474.95935,683.91681 475.176291,684.301958 475.528455,684.510363 C475.880619,684.718768 476.314503,684.718768 476.666667,684.510363 C477.01883,684.301958 477.235772,683.91681 477.235772,683.5 C477.235772,683.08319 477.01883,682.698042 476.666667,682.489637 Z" id="tech-services-icon"></path>
        </g>
    </g>
</svg>