<?xml version="1.0" encoding="UTF-8"?>
<svg width="40px" height="40px" viewBox="0 0 40 40" version="1.1" xmlns="http://www.w3.org/2000/svg" xmlns:xlink="http://www.w3.org/1999/xlink">
    <title>6E59445A-CAD2-414D-81EA-9E083071BE4D</title>
    <g id="TaaS-ROI" stroke="none" stroke-width="1" fill="none" fill-rule="evenodd">
        <g id="Additional-Assets" transform="translate(-530.000000, -670.000000)" fill="#8231A9" fill-rule="nonzero">
            <path d="M551.425949,683.683515 L551.427543,683.751066 L551.427216,688.523573 L559.907558,708.310847 C560.176178,708.937626 559.832384,709.634093 559.137738,709.89674 L559.071595,709.920077 C558.355276,710.155119 557.559315,709.854299 557.259146,709.246484 L557.232475,709.188609 L555.437,704.999 L544.56,704.999 L542.76562,709.188609 C542.497,709.815388 541.714606,710.142323 540.993871,709.940549 L540.9265,709.920077 C540.210182,709.685035 539.836541,709.000439 540.06714,708.369797 L540.090537,708.310847 L548.570226,688.52443 L548.570553,683.751066 L548.572146,683.683515 C548.647233,682.107006 551.350863,682.107006 551.425949,683.683515 Z M549.999048,692.310513 L545.632,702.5 L554.366,702.5 L549.999048,692.310513 Z M561.69476,670.208458 C566.881702,673.219008 570,678.30311 570,683.7494 C570,689.195689 566.881702,694.279792 561.69476,697.290341 C561.037313,697.67193 560.150818,697.514923 559.714717,696.939657 C559.278617,696.364391 559.458053,695.588708 560.1155,695.20712 C564.504451,692.659731 567.14301,688.357799 567.14301,683.7494 C567.14301,679.141001 564.504451,674.839068 560.1155,672.29168 C559.458053,671.910091 559.278617,671.134408 559.714717,670.559142 C560.150818,669.983876 561.037313,669.82687 561.69476,670.208458 Z M540.285283,670.559142 C540.721383,671.134408 540.541947,671.910091 539.8845,672.29168 C535.495549,674.839068 532.85699,679.141001 532.85699,683.7494 C532.85699,688.357799 535.495549,692.659731 539.8845,695.20712 C540.541947,695.588708 540.721383,696.364391 540.285283,696.939657 C539.849182,697.514923 538.962687,697.67193 538.30524,697.290341 C533.118298,694.279792 530,689.195689 530,683.7494 C530,678.30311 533.118298,673.219008 538.30524,670.208458 C538.962687,669.82687 539.849182,669.983876 540.285283,670.559142 Z M559.59038,676.754964 C563.943063,680.642171 563.943063,686.861628 559.59038,690.748834 C559.038245,691.241924 558.133819,691.250007 557.570288,690.766889 C557.006757,690.283771 556.997519,689.492399 557.549654,688.999309 C560.813985,686.084066 560.813985,681.419733 557.549654,678.50449 C556.997519,678.0114 557.006757,677.220028 557.570288,676.73691 C558.133819,676.253792 559.038245,676.261875 559.59038,676.754964 Z M542.427426,676.736583 C542.991163,677.219517 543.000739,678.010887 542.448814,678.504157 C539.186016,681.420206 539.186016,686.083593 542.448814,688.999642 C543.000739,689.492912 542.991163,690.284281 542.427426,690.767216 C541.86369,691.25015 540.959267,691.241771 540.407343,690.748501 C536.057187,686.860651 536.057187,680.643148 540.407343,676.755298 C540.959267,676.262028 541.86369,676.253649 542.427426,676.736583 Z" id="Telecom"></path>
        </g>
    </g>
</svg>