<?xml version="1.0" encoding="UTF-8"?>
<svg width="40px" height="41px" viewBox="0 0 40 41" version="1.1" xmlns="http://www.w3.org/2000/svg" xmlns:xlink="http://www.w3.org/1999/xlink">
    <title>B2813CAC-19E4-4385-A60F-CF4D29340C89</title>
    <g id="TaaS-ROI" stroke="none" stroke-width="1" fill="none" fill-rule="evenodd">
        <g id="Additional-Assets" transform="translate(-670.000000, -669.000000)" fill="#8231A9" fill-rule="nonzero">
            <path d="M693.75,669.744167 C695.791481,669.744167 697.45195,671.608516 697.498976,673.92872 L697.5,674.029881 L697.5,678.315167 L708.75,678.315595 C709.399747,678.315595 709.933707,678.882155 709.994278,679.606586 L710,679.744167 L710,708.315595 C710,709.104573 709.440356,709.744167 708.75,709.744167 L708.75,709.744167 L671.25,709.744167 C670.559644,709.744167 670,709.104573 670,708.315595 L670,708.315595 L670,679.744167 C670,678.955188 670.559644,678.315595 671.25,678.315595 L671.25,678.315595 L682.5,678.315167 L682.5,674.029881 C682.5,671.69676 684.131305,669.79908 686.161484,669.745337 L686.25,669.744167 L693.75,669.744167 Z M680,681.172167 L672.5,681.172684 L672.5,706.886969 L680,706.886167 L680,681.172167 Z M697.5,681.172167 L682.5,681.172167 L682.5,706.886167 L697.5,706.886167 L697.5,681.172167 Z M707.5,681.172684 L700,681.172167 L700,706.886167 L707.5,706.886969 L707.5,681.172684 Z M693.75,672.60131 L686.25,672.60131 C685.579949,672.60131 685.033033,673.203833 685.001441,673.960665 L685,674.029881 L685,678.315167 L695,678.315167 L695,674.029881 C695,673.264108 694.472792,672.639062 693.810564,672.602957 L693.75,672.60131 Z" id="Combined-Shape"></path>
        </g>
    </g>
</svg>