<?xml version="1.0" encoding="UTF-8"?>
<svg width="34px" height="34px" viewBox="0 0 34 34" version="1.1" xmlns="http://www.w3.org/2000/svg" xmlns:xlink="http://www.w3.org/1999/xlink">
    <title>7A7400FC-542B-4A65-B453-40D86324468B</title>
    <g id="TaaS-ROI" stroke="none" stroke-width="1" fill="none" fill-rule="evenodd">
        <g id="TaaS-Calc-Results" transform="translate(-567.000000, -595.000000)" fill="#AAAAAA">
            <path d="M584,597.833333 C591.8115,597.833333 598.166667,604.1885 598.166667,612 C598.166667,619.8115 591.8115,626.166667 584,626.166667 C576.1885,626.166667 569.833333,619.8115 569.833333,612 C569.833333,604.1885 576.1885,597.833333 584,597.833333 Z M584,595 C574.61175,595 567,602.61175 567,612 C567,621.38825 574.61175,629 584,629 C593.38825,629 601,621.38825 601,612 C601,602.61175 593.38825,595 584,595 Z M593.208333,607.4355 C592.583583,607.713167 591.910667,607.900167 591.205167,607.985167 C591.92625,607.553083 592.477333,606.87025 592.739417,606.055667 C592.065083,606.455167 591.3185,606.745583 590.52375,606.901417 C589.889083,606.222833 588.981,605.79925 587.979417,605.79925 C585.726917,605.79925 584.07225,607.900167 584.580833,610.081833 C581.68375,609.935917 579.1125,608.547583 577.392667,606.438167 C576.478917,608.005 576.9195,610.056333 578.472167,611.09475 C577.90125,611.076333 577.364333,610.919083 576.894,610.658417 C576.85575,612.273417 578.014583,613.785 579.691917,614.122167 C579.20175,614.255333 578.663417,614.2865 578.116583,614.181667 C578.56,615.567167 579.850583,616.574417 581.374917,616.60275 C579.905833,617.753083 578.059917,618.267333 576.208333,618.049167 C577.7525,619.039417 579.58425,619.616 581.553417,619.616 C588.030417,619.616 591.68825,614.14625 591.46725,609.240333 C592.150083,608.750167 592.740833,608.135333 593.208333,607.4355 L593.208333,607.4355 Z" id="Shape"></path>
        </g>
    </g>
</svg>