<?xml version="1.0" encoding="UTF-8"?>
<svg width="16px" height="16px" viewBox="0 0 16 16" version="1.1" xmlns="http://www.w3.org/2000/svg" xmlns:xlink="http://www.w3.org/1999/xlink">
    <title>77EFFD30-17F8-4B2E-817C-A11CDB12F893</title>
    <g id="TaaS-ROI" stroke="none" stroke-width="1" fill="none" fill-rule="evenodd">
        <g id="Additional-Assets" transform="translate(-183.000000, -360.000000)" fill="#7F7F7F" fill-rule="nonzero">
            <path d="M188.5,360.000012 C188.776142,360.000012 189,360.223869 189,360.500012 C189,360.770018 188.785981,360.990037 188.51833,360.999682 L188.5,361.000012 L184.182,361.000012 C184.081484,361.000012 184,361.081496 184,361.182012 C184,365.048005 187.134007,368.182012 191,368.182012 C194.865993,368.182012 198,365.048005 198,361.182012 C198,361.133742 197.980825,361.08745 197.946693,361.053318 C197.916354,361.022979 197.876406,361.004457 197.834003,361.000716 L193.5,361.000012 C193.223858,361.000012 193,360.776154 193,360.500012 C193,360.230006 193.214019,360.009987 193.48167,360.000341 L197.818,360.000012 C198.131486,360.000012 198.432132,360.124543 198.6538,360.346211 C198.875468,360.567879 199,360.868526 199,361.182012 C199,364.912449 196.44668,368.046526 192.99234,368.931944 L193.81,372 L195.5,372.000012 C195.74546,372.000012 195.949608,372.176887 195.991944,372.410136 L196,372.500012 L196,375.500012 C196,375.776154 195.776142,376.000012 195.5,376.000012 L195.5,376.000012 L186.5,376.000012 C186.223858,376.000012 186,375.776154 186,375.500012 L186,375.500012 L186,372.500012 C186,372.223869 186.223858,372.000012 186.5,372.000012 L186.5,372.000012 L188.051,372 L188.958598,368.919202 C185.52917,368.0168 183,364.894765 183,361.182012 C183,360.53758 183.515717,360.013601 184.156954,360.000272 L188.5,360.000012 Z M195,373.000012 L187,373.000012 L187,375.000012 L195,375.000012 L195,373.000012 Z M189.942894,369.112788 L189.09424,372.000012 L192.77536,372.000012 L192.008984,369.118992 C191.678508,369.160582 191.341757,369.182012 191,369.182012 C190.64164,369.182012 190.288783,369.158449 189.942894,369.112788 Z M191.047021,360 C191.382974,360.00095 191.690431,360.188933 191.845827,360.490319 L191.845827,360.490319 L192.5388,361.855292 L193.664227,361.855288 C194.019169,361.857799 194.33965,362.071703 194.47742,362.40051 C194.618321,362.736789 194.53952,363.125015 194.279495,363.378925 L194.279495,363.378925 L193.22112,364.417212 L193.808008,365.765232 C193.952691,366.111474 193.865156,366.510269 193.591178,366.764106 L193.591178,366.764106 L193.572637,366.780812 C193.284124,367.033604 192.866367,367.073812 192.541275,366.884319 L192.541275,366.884319 L191.04328,366.040492 L189.528396,366.893789 C189.208231,367.067321 188.814346,367.028778 188.533893,366.796474 L188.533893,366.796474 L188.514513,366.779953 C188.226643,366.527423 188.131908,366.11942 188.279054,365.765883 L188.279054,365.765883 L188.282237,365.758406 L188.8664,364.416652 L187.810695,363.377763 C187.555681,363.128771 187.474651,362.752231 187.60269,362.421353 L187.60269,362.421353 L187.612191,362.397799 C187.747938,362.074592 188.060842,361.861687 188.410628,361.853496 L188.410628,361.853496 L189.55048,361.853292 L190.246899,360.483029 C190.398555,360.192939 190.695337,360.008682 191.021224,360.000295 L191.021224,360.000295 Z M191.0444,361.120732 L190.303087,362.579849 C190.217823,362.747645 190.045554,362.853343 189.857338,362.853345 L189.857338,362.853345 L188.70336,362.853292 L189.812714,363.944975 C189.955139,364.08514 189.999974,364.296039 189.92853,364.481214 L189.92853,364.481214 L189.920429,364.500951 L189.32944,365.858172 L190.797942,365.031037 C190.943936,364.948801 191.120934,364.945374 191.269511,365.020758 L191.269511,365.020758 L191.288725,365.031037 L192.75808,365.858732 L192.166904,364.500951 C192.086926,364.317268 192.124502,364.104295 192.260728,363.959196 L192.260728,363.959196 L192.275172,363.944432 L193.38528,362.855292 L192.232,362.855345 C192.050448,362.855345 191.883738,362.757001 191.795636,362.599452 L191.795636,362.599452 L191.786173,362.581705 L191.0444,361.120732 Z" id="Combined-Shape"></path>
        </g>
    </g>
</svg>